<?xml version="1.0" encoding="utf-8"?>
<!-- Generator: Adobe Illustrator 16.0.0, SVG Export Plug-In . SVG Version: 6.00 Build 0)  -->
<!DOCTYPE svg PUBLIC "-//W3C//DTD SVG 1.0//EN" "http://www.w3.org/TR/2001/REC-SVG-20010904/DTD/svg10.dtd">
<svg version="1.0" id="Layer_1" xmlns="http://www.w3.org/2000/svg" xmlns:xlink="http://www.w3.org/1999/xlink" x="0px" y="0px"
	 width="48px" height="48px" viewBox="0 0 48 48" style="enable-background:new 0 0 48 48;" xml:space="preserve">
<style type="text/css">
<![CDATA[
	.st0{fill:#4D4D4D;}
]]>
</style>
<g id="XMLID_25_">
	<path id="XMLID_266_" class="st0" d="M30,9c-2.2,0-4.3,0.7-6,1.8C22.3,9.7,20.2,9,18,9c-6,0-11,4.8-11,10.8c0,2.6,1,5.1,2.5,6.9
		L19.3,37c2.5,2.6,6.6,2.6,9.1,0l10-10.4c1.6-1.9,2.5-4.3,2.5-6.9C41,13.8,36.1,9,30,9z M35.4,24l-9.9,10.3
		c-0.6,0.6-1.3,0.7-1.6,0.7c-0.4,0-1.1-0.1-1.6-0.7l-9.7-10.2c-1-1.2-1.5-2.8-1.5-4.3c0-3.8,3.1-6.8,6.9-6.8c1.4,0,2.7,0.4,3.8,1.1
		l2.3,1.5l2.3-1.5c1.1-0.7,2.4-1.1,3.8-1.1c3.8,0,6.9,3.1,6.9,6.8C37,21.4,36.4,22.9,35.4,24z"/>
</g>
</svg>
