<?xml version="1.0" encoding="utf-8"?>
<!-- Generator: Adobe Illustrator 16.0.0, SVG Export Plug-In . SVG Version: 6.00 Build 0)  -->
<!DOCTYPE svg PUBLIC "-//W3C//DTD SVG 1.0//EN" "http://www.w3.org/TR/2001/REC-SVG-20010904/DTD/svg10.dtd">
<svg version="1.0" id="Layer_1" xmlns="http://www.w3.org/2000/svg" xmlns:xlink="http://www.w3.org/1999/xlink" x="0px" y="0px"
	 width="48px" height="48px" viewBox="0 0 48 48" style="enable-background:new 0 0 48 48;" xml:space="preserve">
<style type="text/css">
<![CDATA[
	.st0{fill:#4D4D4D;}
]]>
</style>
<g id="XMLID_22_">
	<g id="XMLID_44_">
		<path id="XMLID_192_" class="st0" d="M5,23.5L4,24c0,0.8,0.1,1.5,0.1,2.2L9,23.5H5z"/>
		<path id="XMLID_190_" class="st0" d="M10.1,25.2l-5.6,3.2c0.2,0.7,0.3,1.3,0.6,2l5.4-3.1C10.2,26.6,10.1,25.9,10.1,25.2z"/>
		<path id="XMLID_189_" class="st0" d="M11,29.2l-5.2,3c0.3,0.6,0.6,1.2,0.9,1.8l5.2-3C11.6,30.5,11.3,29.9,11,29.2z"/>
		<path id="XMLID_188_" class="st0" d="M13,32.7l-5.2,3c0.4,0.5,0.8,1.1,1.3,1.6l5.4-3.1C13.9,33.8,13.4,33.2,13,32.7z"/>
		<path id="XMLID_121_" class="st0" d="M16.1,35.6l-5.6,3.2c0.5,0.5,1.1,0.9,1.6,1.4l5.9-3.4C17.4,36.4,16.7,36,16.1,35.6z"/>
		<path id="XMLID_116_" class="st0" d="M20.5,37.6L14,41.4c0.7,0.4,1.4,0.8,2.1,1.1l7.6-4.4C22.7,38,21.6,37.9,20.5,37.6z"/>
		<path id="XMLID_109_" class="st0" d="M18.7,43.3c1,0.3,2,0.5,3,0.6l12.1-7l-1.1-1.7L18.7,43.3z"/>
		<polygon id="XMLID_105_" class="st0" points="34.4,34.2 34.4,34.2 34.4,34.3 		"/>
		<path id="XMLID_101_" class="st0" d="M25.5,44c3.9-0.3,7.5-1.7,10.5-3.9l-1.1-1.5L25.5,44z"/>
	</g>
	<path id="XMLID_24_" class="st0" d="M44,24C44,13,35,4,24,4C13.8,4,5.5,11.6,4.2,21.5h6.1C11.5,15,17.2,10,24,10
		c7.7,0,14,6.3,14,14c0,3.8-1.5,7.2-3.9,9.7l3.5,5C41.5,35.1,44,29.9,44,24z"/>
	<path id="XMLID_23_" class="st0" d="M30.5,27.4c-1.1-0.7-2.4-1.1-3.6-1.6c-0.3-0.1-0.6-0.2-0.9-0.4c-0.2-0.1-0.3-0.4-0.4-0.7
		c0-0.1,0-0.3,0-0.4c0.9-1.2,1.5-3.3,1.5-5c0-2.6-1.4-3.3-3.2-3.3s-3.2,0.7-3.2,3.3c0,1.7,0.6,3.9,1.6,5.1c0,0.1,0,0.2,0,0.3
		c-0.1,0.3-0.1,0.6-0.4,0.7c-0.3,0.2-0.6,0.3-0.9,0.4c-1.2,0.4-2.5,0.8-3.6,1.5c-0.6,0.4-0.9,0.9-1.2,1.6C16.1,29.6,16,30.1,16,31h8
		h8c0-0.9-0.1-1.4-0.3-2.1C31.5,28.3,31.1,27.8,30.5,27.4z"/>
</g>
</svg>
