<?xml version="1.0" encoding="utf-8"?>
<!-- Generator: Adobe Illustrator 16.0.0, SVG Export Plug-In . SVG Version: 6.00 Build 0)  -->
<!DOCTYPE svg PUBLIC "-//W3C//DTD SVG 1.0//EN" "http://www.w3.org/TR/2001/REC-SVG-20010904/DTD/svg10.dtd">
<svg version="1.0" id="Layer_1" xmlns="http://www.w3.org/2000/svg" xmlns:xlink="http://www.w3.org/1999/xlink" x="0px" y="0px"
	 width="48px" height="48px" viewBox="0 0 48 48" style="enable-background:new 0 0 48 48;" xml:space="preserve">
<style type="text/css">
<![CDATA[
	.st0{fill:#4D4D4D;}
]]>
</style>
<g id="XMLID_26_">
	<path id="XMLID_2_" class="st0" d="M21.6,38.2c0.1,0.2-0.1,0.5-0.3,0.4c-6.4-1.7-11.4-7.2-11.3-12c0.1-5.1,4.4-8.4,8.1-12.4
		c2.5-2.7,4-6.2,4.7-8.1c0.1-0.2,0.5-0.2,0.5,0.1c0.1,1.7,0.3,4.4,1.4,6.7c1.7,3.5,2.9,5.9,4,7c0,0,2.6-2,2.1-6.2
		c0-0.2,0.2-0.3,0.4-0.2c1.7,1.9,7,8.2,6.8,12.1c-0.2,4.4-0.7,9.1-12.9,15.3c-0.2,0.1-0.5-0.1-0.4-0.4c1.3-2.3,1.8-5.2,2-7.7
		c0.2-2.8-0.6-4.8-3.3-7.1c-1.8-1.5-1.8-3.3-1.6-4.4c0-0.1-0.1-0.2-0.2-0.1C20.6,23.6,18,30.2,21.6,38.2z"/>
</g>
</svg>
