<?xml version="1.0" encoding="utf-8"?>
<!-- Generator: Adobe Illustrator 16.0.0, SVG Export Plug-In . SVG Version: 6.00 Build 0)  -->
<!DOCTYPE svg PUBLIC "-//W3C//DTD SVG 1.0//EN" "http://www.w3.org/TR/2001/REC-SVG-20010904/DTD/svg10.dtd">
<svg version="1.0" id="Layer_1" xmlns="http://www.w3.org/2000/svg" xmlns:xlink="http://www.w3.org/1999/xlink" x="0px" y="0px"
	 width="48px" height="48px" viewBox="0 0 48 48" style="enable-background:new 0 0 48 48;" xml:space="preserve">
<style type="text/css">
<![CDATA[
	.st0{fill:#4D4D4D;}
]]>
</style>
<g id="XMLID_5_">
	<path id="XMLID_19_" class="st0" d="M11.5,31.9c0.4-1.4,1.3-2.1,2.1-2.6c1.5-1,3.2-1.6,4.9-2.2l0.7-0.2c0.4-0.2,0.8-0.3,1.1-0.5
		c0,0,0-0.1,0.1-0.4c0,0,0-0.1-0.1-0.1c-0.4-0.2-0.9-0.3-1.3-0.4c-0.4-0.1-0.8-0.3-1.2-0.5c-0.3-0.2-0.5-0.6-0.5-1
		c0-0.2-0.1-0.4-0.1-0.6c0.5-0.6,0.9-1.4,1.2-2.3c-0.2-1-0.3-2-0.3-3c0-1.5,0.3-2.7,0.9-3.7c-0.7-1.8-2.2-2.4-4.1-2.4
		c-2.4,0-4.4,1-4.4,4.6c0,2.4,0.9,5.3,2.2,6.9c0,0.1,0,0.3-0.1,0.4c-0.1,0.4-0.2,0.8-0.5,1c-0.4,0.2-0.8,0.4-1.2,0.5
		C9.2,26,7.5,26.5,6,27.5c-0.8,0.5-1.3,1.1-1.6,2C4.1,30.3,4,32,4,32h7.5C11.5,31.9,11.5,31.9,11.5,31.9z"/>
	<path id="XMLID_297_" class="st0" d="M33.8,30.1c-1.6-1.1-3.5-1.7-5.4-2.3c-0.4-0.2-0.9-0.3-1.3-0.6c-0.4-0.2-0.5-0.7-0.6-1.1
		c0-0.2-0.1-0.4-0.1-0.6c1.3-1.9,2.2-4.9,2.2-7.5c0-3.9-2.1-5-4.8-5s-4.8,1.1-4.8,5c0,2.6,0.9,5.8,2.4,7.7c0,0.1,0,0.3-0.1,0.4
		c-0.1,0.4-0.2,0.8-0.6,1.1c-0.4,0.2-0.9,0.4-1.3,0.6c-1.8,0.6-3.7,1.2-5.4,2.3c-0.8,0.6-1.4,1.1-1.7,2.1C12.1,33.2,12,35,12,35h12
		h12c0,0-0.1-1.8-0.4-2.8C35.2,31.2,34.7,30.7,33.8,30.1z"/>
	<path id="XMLID_21_" class="st0" d="M43.6,29.4c-0.3-0.9-0.8-1.4-1.6-1.9c-1.5-1-3.2-1.5-4.9-2.1c-0.4-0.1-0.8-0.3-1.2-0.5
		c-0.3-0.2-0.5-0.6-0.5-1c0-0.2-0.1-0.4-0.1-0.6c1.2-1.7,2-4.5,2-6.8c0-3.6-2-4.6-4.4-4.6c-1.8,0-3.4,0.6-4.1,2.4
		c0.6,0.9,0.9,2.2,0.9,3.7c0,1-0.1,2-0.3,3c0.4,0.9,0.8,1.8,1.3,2.4c0,0.1,0,0.3-0.1,0.4c-0.1,0.4-0.2,0.8-0.5,1
		c-0.4,0.2-0.8,0.4-1.2,0.5c-0.5,0.2-0.9,0.3-1.4,0.5c0,0,0,0.1,0,0.1c0.1,0.3,0.1,0.4,0.1,0.4c0.3,0.2,0.7,0.3,1.1,0.5l0.6,0.2
		c1.7,0.6,3.5,1.2,5,2.3c1,0.7,1.7,1.4,2.1,2.6c0,0,0,0,0,0.1H44C44,32,43.9,30.3,43.6,29.4z"/>
</g>
</svg>
