<?xml version="1.0" encoding="utf-8"?>
<!-- Generator: Adobe Illustrator 16.0.0, SVG Export Plug-In . SVG Version: 6.00 Build 0)  -->
<!DOCTYPE svg PUBLIC "-//W3C//DTD SVG 1.0//EN" "http://www.w3.org/TR/2001/REC-SVG-20010904/DTD/svg10.dtd">
<svg version="1.0" id="Layer_1" xmlns="http://www.w3.org/2000/svg" xmlns:xlink="http://www.w3.org/1999/xlink" x="0px" y="0px"
	 width="48px" height="48px" viewBox="0 0 48 48" style="enable-background:new 0 0 48 48;" xml:space="preserve">
<style type="text/css">
<![CDATA[
	.st0{fill:#4D4D4D;}
]]>
</style>
<g id="XMLID_41_">
	<g id="XMLID_606_">
		<path id="XMLID_777_" class="st0" d="M39.3,16.9l-15.9,8.5l0-16.5C14.3,9.2,7,15.4,7,22.9c0,4.1,2.2,7.8,5.6,10.3
			c-0.4,1.5-1,3.2-2.3,4.4c-0.6,0.5-0.1,1.5,0.7,1.4c1.8-0.3,4.2-1.3,6.2-3.3c2.1,0.7,4.4,1.2,6.8,1.2c9.4,0,17-6.2,17-13.9
			C41,20.8,40.4,18.7,39.3,16.9z"/>
		<g id="XMLID_729_">
			<path id="XMLID_773_" class="st0" d="M31,10c-0.9-0.3-1.7-0.6-2.7-0.8l-2.9,1.7l0,2.3L31,10z"/>
			<polygon id="XMLID_742_" class="st0" points="23.4,12.1 23.4,13.7 23.4,12.1 			"/>
			<path id="XMLID_731_" class="st0" d="M35.2,12.2c-0.6-0.4-1.2-0.8-1.9-1.2l-7.8,4.5l0,2.3L35.2,12.2z"/>
			<path id="XMLID_730_" class="st0" d="M38.2,15.1c-0.4-0.5-0.9-1-1.4-1.5l-11.4,6.5l0,2.3L38.2,15.1z"/>
		</g>
	</g>
</g>
</svg>
