<?xml version="1.0" encoding="utf-8"?>
<!-- Generator: Adobe Illustrator 16.0.0, SVG Export Plug-In . SVG Version: 6.00 Build 0)  -->
<!DOCTYPE svg PUBLIC "-//W3C//DTD SVG 1.0//EN" "http://www.w3.org/TR/2001/REC-SVG-20010904/DTD/svg10.dtd">
<svg version="1.0" id="Layer_1" xmlns="http://www.w3.org/2000/svg" xmlns:xlink="http://www.w3.org/1999/xlink" x="0px" y="0px"
	 width="48px" height="48px" viewBox="0 0 48 48" style="enable-background:new 0 0 48 48;" xml:space="preserve">
<style type="text/css">
<![CDATA[
	.st0{fill:#4D4D4D;}
]]>
</style>
<g id="XMLID_51_">
	<g id="XMLID_1_">
		<g id="XMLID_1058_">
			<path id="XMLID_1059_" class="st0" d="M23.1,14.9V9C12.5,9.5,4,18.1,4,28.6c0,1.9,0.3,3.7,0.8,5.4h6.3c-0.7-1.6-1.1-3.5-1.1-5.4
				C10,21.3,15.8,15.4,23.1,14.9z"/>
		</g>
		<g id="XMLID_1026_">
			<path id="XMLID_1036_" class="st0" d="M25.1,9v1l1.5-0.8C26.1,9.1,25.6,9,25.1,9z"/>
			<path id="XMLID_1035_" class="st0" d="M43.3,33.8L42.9,34h0.3C43.3,33.9,43.3,33.8,43.3,33.8z"/>
			<path id="XMLID_1034_" class="st0" d="M26.6,9.2L25.1,10v2.3l4.4-2.5C28.6,9.5,27.6,9.3,26.6,9.2z"/>
			<path id="XMLID_1033_" class="st0" d="M32,10.6l-6.9,3.9v0.4c0.9,0.1,1.7,0.2,2.6,0.4l6.5-3.7C33.5,11.3,32.7,11,32,10.6z"/>
			<path id="XMLID_1032_" class="st0" d="M36,12.9l-5.9,3.3c0.7,0.3,1.3,0.7,2,1.2l5.5-3.1C37.1,13.8,36.6,13.3,36,12.9z"/>
			<path id="XMLID_1031_" class="st0" d="M39,15.7l-5.3,3c0.5,0.5,1,1,1.4,1.5l5.2-3C39.9,16.7,39.5,16.2,39,15.7z"/>
			<path id="XMLID_1030_" class="st0" d="M41.4,18.9l-5.2,3c0.3,0.6,0.6,1.2,0.9,1.8l5.2-3C42,20.1,41.7,19.5,41.4,18.9z"/>
			<path id="XMLID_1029_" class="st0" d="M43,22.6l-5.4,3c0.2,0.7,0.3,1.4,0.3,2.1l5.6-3.2C43.4,23.9,43.2,23.2,43,22.6z"/>
			<path id="XMLID_1028_" class="st0" d="M44,28.6c0-0.7,0-1.4-0.1-2l-6,3.4c-0.1,0.9-0.3,1.7-0.5,2.6l6.6-3.7
				C44,28.8,44,28.7,44,28.6z"/>
			<path id="XMLID_1027_" class="st0" d="M43.8,31.2L38.9,34h4l0.4-0.2C43.5,32.9,43.7,32.1,43.8,31.2z"/>
		</g>
	</g>
	<path id="XMLID_1023_" class="st0" d="M32.3,24.5c-0.8-0.7-2.1-0.7-2.8,0.1l-4,4.5c-1.8-0.6-3.9-0.1-5.2,1.4
		c-1.8,2.1-1.7,5.2,0.3,7.1c2,1.9,5.2,1.7,7-0.3c1.4-1.5,1.7-3.7,0.9-5.5l4-4.5C33.2,26.5,33.2,25.3,32.3,24.5z M24,35.9
		c-1.1,0-2-0.9-2-2s0.9-2,2-2c1.1,0,2,0.9,2,2S25.1,35.9,24,35.9z"/>
</g>
</svg>
