<?xml version="1.0" encoding="utf-8"?>
<!-- Generator: Adobe Illustrator 16.0.0, SVG Export Plug-In . SVG Version: 6.00 Build 0)  -->
<!DOCTYPE svg PUBLIC "-//W3C//DTD SVG 1.0//EN" "http://www.w3.org/TR/2001/REC-SVG-20010904/DTD/svg10.dtd">
<svg version="1.0" id="Layer_1" xmlns="http://www.w3.org/2000/svg" xmlns:xlink="http://www.w3.org/1999/xlink" x="0px" y="0px"
	 width="48px" height="48px" viewBox="0 0 48 48" style="enable-background:new 0 0 48 48;" xml:space="preserve">
<style type="text/css">
<![CDATA[
	.st0{fill:#4D4D4D;}
]]>
</style>
<g id="XMLID_28_">
	<path id="XMLID_511_" class="st0" d="M10,40L10,40c-2.2,0-4-1.8-4-4V26c0-2.2,1.8-4,4-4l0,0c2.2,0,4,1.8,4,4v10
		C14,38.2,12.2,40,10,40z"/>
	<path id="XMLID_510_" class="st0" d="M19.3,40L19.3,40c-2.2,0-4-1.8-4-4V18c0-2.2,1.8-4,4-4l0,0c2.2,0,4,1.8,4,4v18
		C23.3,38.2,21.5,40,19.3,40z"/>
	<path id="XMLID_479_" class="st0" d="M38,40L38,40c-2.2,0-4-1.8-4-4V12c0-2.2,1.8-4,4-4l0,0c2.2,0,4,1.8,4,4v24
		C42,38.2,40.2,40,38,40z"/>
	<g id="XMLID_408_">
		<path id="XMLID_477_" class="st0" d="M28.7,21c-2.2,0-4,1.8-4,4l5.9-3.4C30,21.2,29.4,21,28.7,21z"/>
		<path id="XMLID_470_" class="st0" d="M32.1,23l-7.4,4.3v2.3l8-4.6C32.7,24.3,32.4,23.6,32.1,23z"/>
		<polygon id="XMLID_469_" class="st0" points="32.7,27.3 24.7,31.9 24.7,34.3 32.7,29.6 		"/>
		<path id="XMLID_468_" class="st0" d="M32.7,31.9l-7.9,4.6c0.1,0.7,0.4,1.3,0.8,1.9l7.2-4.2V31.9z"/>
		<path id="XMLID_465_" class="st0" d="M32.6,36.6l-5.4,3.1c0.4,0.2,0.9,0.3,1.4,0.3C30.7,40,32.3,38.5,32.6,36.6z"/>
	</g>
</g>
</svg>
