<?xml version="1.0" encoding="utf-8"?>
<!-- Generator: Adobe Illustrator 16.0.0, SVG Export Plug-In . SVG Version: 6.00 Build 0)  -->
<!DOCTYPE svg PUBLIC "-//W3C//DTD SVG 1.0//EN" "http://www.w3.org/TR/2001/REC-SVG-20010904/DTD/svg10.dtd">
<svg version="1.0" id="Layer_1" xmlns="http://www.w3.org/2000/svg" xmlns:xlink="http://www.w3.org/1999/xlink" x="0px" y="0px"
	 width="48px" height="48px" viewBox="0 0 48 48" style="enable-background:new 0 0 48 48;" xml:space="preserve">
<style type="text/css">
<![CDATA[
	.st0{fill:#4D4D4D;}
]]>
</style>
<g id="XMLID_29_">
	<path id="XMLID_380_" class="st0" d="M39,4.9H9c-2.8,0-5,2.2-5,5v23.3c0,2.8,2.2,5,5,5h14c0.3,0,0.6,0.1,0.8,0.3l7.9,5.8
		c1.7,1.4,4.3,0.2,4.3-2V39c0-0.4,0.4-0.8,0.8-0.8H39c2.8,0,5-2.2,5-5V9.9C44,7.1,41.8,4.9,39,4.9z M41,33.2c0,1.1-0.9,2-2,2h-3.1
		h-1.7c-0.7,0-1.3,0.6-1.3,1.3v1.7V41c0,0.2-0.3,0.4-0.5,0.2l-4.3-3l-4-2.8c-0.2-0.1-0.4-0.2-0.7-0.2h-4.1H9c-1.1,0-2-0.9-2-2V9.9
		c0-1.1,0.9-2,2-2h30c1.1,0,2,0.9,2,2V33.2z"/>
	<g id="XMLID_399_">
		<path id="XMLID_400_" class="st0" d="M34,15.9c-0.7,0.3-1.5,0.5-2.2,0.6c0.8-0.5,1.4-1.3,1.7-2.2c-0.8,0.5-1.6,0.8-2.5,1
			c-0.7-0.8-1.7-1.3-2.8-1.3c-2.2,0-3.9,1.8-3.9,4c0,0.3,0,0.6,0.1,0.9c-3.2-0.2-6.1-1.8-8-4.2c-0.3,0.6-0.5,1.3-0.5,2
			c0,1.4,0.7,2.6,1.7,3.4c-0.6,0-1.2-0.2-1.8-0.5c0,0,0,0,0,0.1c0,2,1.3,3.6,3.1,4c-0.3,0.1-0.7,0.1-1,0.1c-0.3,0-0.5,0-0.7-0.1
			c0.5,1.6,1.9,2.8,3.6,2.8c-1.3,1.1-3,1.7-4.8,1.7c-0.3,0-0.6,0-0.9-0.1c1.7,1.1,3.8,1.8,6,1.8c7.2,0,11.1-6.2,11.1-11.5
			c0-0.2,0-0.3,0-0.5C32.8,17.4,33.5,16.7,34,15.9z"/>
	</g>
</g>
</svg>
