<?xml version="1.0" encoding="utf-8"?>
<!-- Generator: Adobe Illustrator 16.0.0, SVG Export Plug-In . SVG Version: 6.00 Build 0)  -->
<!DOCTYPE svg PUBLIC "-//W3C//DTD SVG 1.0//EN" "http://www.w3.org/TR/2001/REC-SVG-20010904/DTD/svg10.dtd">
<svg version="1.0" id="Layer_1" xmlns="http://www.w3.org/2000/svg" xmlns:xlink="http://www.w3.org/1999/xlink" x="0px" y="0px"
	 width="22px" height="22px" viewBox="0 0 22 22" style="enable-background:new 0 0 22 22;" xml:space="preserve">
<style type="text/css">
<![CDATA[
	.st0{fill:#4D4D4D;}
]]>
</style>
<g id="XMLID_56_">
	<path id="XMLID_368_" class="st0" d="M19.5,6h-17C1.7,6,1,5.3,1,4.5v0C1,3.7,1.7,3,2.5,3h17C20.3,3,21,3.7,21,4.5v0
		C21,5.3,20.3,6,19.5,6z"/>
	<path id="XMLID_244_" class="st0" d="M11.5,20h-9C1.7,20,1,19.3,1,18.5v0C1,17.7,1.7,17,2.5,17h9c0.8,0,1.5,0.7,1.5,1.5v0
		C13,19.3,12.3,20,11.5,20z"/>
	<path id="XMLID_238_" class="st0" d="M15.5,13h-13C1.7,13,1,12.3,1,11.5v0C1,10.7,1.7,10,2.5,10h13c0.8,0,1.5,0.7,1.5,1.5v0
		C17,12.3,16.3,13,15.5,13z"/>
</g>
</svg>
